<svg width="32" height="32" xmlns="http://www.w3.org/2000/svg">

 <g>
  <title>background</title>
  <rect fill="none" id="canvas_background" height="402" width="582" y="-1" x="-1"/>
 </g>
 <g>
  <title>Layer 1</title>
  <path fill="#ffffff" id="svg_2" d="m26.575893,25.173691l-1.42236,0l0,-11.3623c0,-4.11938 -2.75085,-7.60492 -6.51062,-8.72681c0.19781,-0.39331 0.3197,-0.83093 0.3197,-1.30054c0,-1.60938 -1.30908,-2.91797 -2.91797,-2.91797s-2.91797,1.30859 -2.91797,2.91797c0,0.4696 0.12189,0.90723 0.3197,1.30054c-3.75977,1.12189 -6.51062,4.60742 -6.51062,8.72681l0,11.3623l-1.42236,0c-0.55225,0 -1,0.44727 -1,1s0.44775,1 1,1l2.42236,0l3.64191,0c0.40466,2.09991 2.25098,3.69238 4.46698,3.69238s4.06232,-1.59247 4.46698,-3.69238l3.64191,0l2.42236,0c0.55225,0 1,-0.44727 1,-1s-0.44775,-1 -1,-1zm-11.44922,-21.38965c0,-0.50586 0.41162,-0.91797 0.91797,-0.91797s0.91797,0.41211 0.91797,0.91797s-0.41162,0.91797 -0.91797,0.91797s-0.91797,-0.41211 -0.91797,-0.91797zm0.91797,25.08203c-1.10596,0 -2.0498,-0.70703 -2.4043,-1.69238l4.80859,0c-0.35449,0.98535 -1.29833,1.69238 -2.40429,1.69238zm3.5542,-3.69238l-7.1084,0l-3.55469,0l0,-11.3623c0,-3.91992 3.18896,-7.10938 7.10889,-7.10938s7.10889,3.18945 7.10889,7.10938l0,11.3623l-3.55469,0z"/>
 </g>
</svg>