<svg width="32" height="32" xmlns="http://www.w3.org/2000/svg">

 <title/>
 <g>
  <title>background</title>
  <rect fill="none" id="canvas_background" height="402" width="582" y="-1" x="-1"/>
 </g>
 <g>
  <title>Layer 1</title>
  <path transform="rotate(-180 16,15.999999999999998) " stroke-width="2px" stroke-linejoin="round" stroke-linecap="round" stroke="#000000" fill="none" id="svg_1" d="m13,25l0,-15a3,3 0 0 1 3,-3l0,0a3,3 0 0 1 3,3l0,16a5,5 0 0 1 -5,5l0,0a5,5 0 0 1 -5,-5l0,-18a7,7 0 0 1 7,-7l0,0a7,7 0 0 1 7,7l0,18" class="cls-1"/>
 </g>
</svg>