<?xml version="1.0" encoding="UTF-8"?>
<!DOCTYPE svg  PUBLIC '-//W3C//DTD SVG 1.1//EN'  'http://www.w3.org/Graphics/SVG/1.1/DTD/svg11.dtd'>
<svg width="100px" height="100px" enable-background="new -27 24 100 100" version="1.1" viewBox="-27 24 100 100" xml:space="preserve" xmlns="http://www.w3.org/2000/svg" xmlns:xlink="http://www.w3.org/1999/xlink"><circle cx="23" cy="74" r="50" fill="#F5EEE5"/><defs><circle id="f" cx="23" cy="74" r="50"/></defs><clipPath id="c"><use overflow="visible" xlink:href="#f"/></clipPath><path d="m36 97.9 7.1 1.8c7.6 2 22.8 5.9 22.8 5.9 3.2 1.1 5.7 3.5 7.1 6.6v11.8h-100v-11.8c1.3-3.1 3.9-5.5 7.1-6.6 0 0 15.2-3.9 22.8-5.9 2.4-0.6 7.1-1.8 7.1-1.8v-14.9h26v14.9z" clip-path="url(#c)" fill="#E6C19C"/><g clip-path="url(#c)"><defs><path id="e" d="m36 97.9 7.1 1.8c7.6 2 22.8 5.9 22.8 5.9 3.2 1.1 5.7 3.5 7.1 6.6v11.8h-100v-11.8c1.3-3.1 3.9-5.5 7.1-6.6 0 0 15.2-3.9 22.8-5.9 2.4-0.6 7.1-1.8 7.1-1.8v-14.9h26v14.9z"/></defs><clipPath id="a"><use overflow="visible" xlink:href="#e"/></clipPath><path d="m23.2 35h0.2c3.3 0 8.2 0.2 11.4 2 3.3 1.9 7.3 5.6 8.5 12.1 2.4 13.7-2.1 35.4-6.3 42.4-4 6.7-9.8 9.2-13.5 9.4h-0.1-0.2-0.2-0.1c-3.7-0.2-9.5-2.7-13.5-9.4-4.2-7-8.7-28.7-6.3-42.4 1.2-6.5 5.2-10.2 8.5-12.1 3.2-1.8 8.1-2 11.4-2h0.2z" clip-path="url(#a)" fill="#D4B08C"/><path d="m-27 82h100v42h-100v-42zm50 32c13.5-0.2 21-15 21-15s-10-17-21-17-21 17-21 17 7.5 15.2 21 15z" clip-path="url(#a)" fill="#8EBF1D"/><path d="M23,77C9.9,77-1.9,97.2-1.9,97.2s8.9,18,24.9,17.8s24.9-17.8,24.9-17.8       S36.1,77,23,77z M23,111C10.9,111,2.2,96.9,2.2,96.9S12,81,23,81s20.8,15.9,20.8,15.9S35.1,111,23,111z" clip-path="url(#a)" fill="#70A619"/></g><path d="m22.8 44c19.1 0 20.7 12.8 20.8 14.1 1.1 11.9-3 25.1-6.8 30.7-4 5.9-9.8 8.1-13.5 8.3h-0.3-0.2c-3.8-0.2-9.6-2.4-13.6-8.3-3.8-5.6-7.9-18.8-6.8-30.8 0.1-1.3 1.3-14 20.4-14z" fill="#F2CEA5"/><path d="m23.1 86c-3.6 0-5.6-1-5.6-1-0.3 0-0.4 0.4-0.3 0.7 0.3 1.8 2.3 4.3 6 4.3s5.6-2.5 5.9-4.3c0.1-0.3 0-0.7-0.3-0.7-0.2 0-2.2 1-5.7 1z" fill="#A3705F"/><defs><rect id="d" x="7" y="68" width="31" height="5"/></defs><clipPath id="b"><use overflow="visible" xlink:href="#d"/></clipPath><circle cx="32" cy="72" r="2" clip-path="url(#b)" fill="#291F21"/><circle cx="14" cy="72" r="2" clip-path="url(#b)" fill="#291F21"/><path d="m9 68.4c1-1.6 2.7-2.4 4.3-2.4 2.5 0 5 0.6 6.5 2.1" fill="none" stroke="#CC9872" stroke-width="2"/><path d="M36.8,68.4c-1-1.6-2.7-2.4-4.3-2.4c-3.5,0-6.9,1.1-7.7,4.3S23,79,23,79" fill="none" stroke="#BB8660" stroke-width="2"/><path d="m43.1 70.8s0.7-3.4 2.6-4.4c1.3-5.5 1.4-7.4 1.4-8.3 0-2.9-0.3-5.7-1.9-8.1-1.8-2.6-5.6-4.1-7.6-4.1-2.3 1.4-7.7 4.6-9.4 6.5-0.9 1 0.4 1.8 0.4 1.8s4.6-6 4.9-2.7 9.8 11.6 9.8 11.6v7.7z" fill="#452228"/><path d="m-0.5 60.6c0 1 0.7 4.7 1.2 6.1 1.6 0.7 2.3 4.4 2.3 4.4v-8c6-1.7 12.8-5.1 16.7-10.3 1.2 3.6-0.1 6.1-0.1 6.1s6.7 0.2 11.7-3.6c3-2.3 6.6-9.2 6.6-9.2s-1.8-7.9-15-6.8c-5.6 0.5-8.3 3.9-17.4 3 0 0 0.9 2.2 1.9 3.5-4 1.8-7.9 6.9-7.9 14.8z" fill="#6B363E"/></svg>
