<svg width="64" height="64" xmlns="http://www.w3.org/2000/svg">

 <g>
  <title>background</title>
  <rect fill="none" id="canvas_background" height="402" width="582" y="-1" x="-1"/>
 </g>
 <g>
  <title>Layer 1</title>
  <path stroke="null" fill="#f7f8f9" id="Fill-48" d="m15.045708,14.529362c0.933795,-2.486511 2.101039,-4.52093 3.73518,-6.103255c1.634141,-1.582325 3.73518,-2.938604 6.069667,-3.84279c2.334487,-0.904186 5.135872,-1.356279 8.170706,-1.356279c2.334487,0 4.668975,0.452093 6.770014,1.130232c2.101039,0.678139 3.968629,1.808372 5.60277,2.938604s2.801385,2.938604 3.73518,4.746976c0.933795,1.808372 1.400692,4.068837 1.400692,6.555348c0,3.164651 -0.700346,5.651162 -2.101039,7.911627s-3.268282,4.294883 -5.369321,6.329302c-1.86759,1.808372 -3.268282,3.164651 -4.202077,4.068837c-1.167244,0.904186 -1.86759,2.034418 -2.334487,2.938604s-0.933795,2.034418 -0.933795,3.390697c-0.233449,1.356279 -0.233449,2.260465 -0.233449,4.746976l-5.369321,0c0,-2.486511 0,-3.616744 0.466897,-5.199069c0.233449,-1.808372 0.933795,-3.164651 1.634141,-4.746976c0.700346,-1.356279 1.86759,-2.712558 3.034834,-4.068837c1.400692,-1.356279 2.801385,-2.712558 4.668975,-4.294883c1.634141,-1.356279 3.034834,-2.938604 3.968629,-4.746976c1.167244,-1.808372 1.634141,-3.84279 1.634141,-5.877209c0,-1.582325 -0.233449,-3.164651 -0.933795,-4.52093c-0.700346,-1.356279 -1.634141,-2.486511 -2.567936,-3.616744s-2.334487,-1.808372 -3.968629,-2.260465c-1.400692,-0.452093 -3.034834,-0.904186 -4.668975,-0.904186c-2.334487,0 -4.435526,0.452093 -6.069667,1.130232c-1.86759,0.678139 -3.268282,1.808372 -4.435526,3.164651c-1.167244,1.356279 -2.101039,2.938604 -2.567936,4.746976c-0.466897,1.808372 -0.933795,3.390697 -0.700346,5.425116l-5.369321,0c-0.233449,-3.164651 0,-5.199069 0.933795,-7.685581l0,0zm14.006925,39.558137l6.536565,0l0,6.329302l-6.536565,0l0,-6.329302z" class="st0"/>
 </g>
</svg>