<svg width="800" height="800" xmlns="http://www.w3.org/2000/svg">

 <g>
  <title>background</title>
  <rect fill="none" id="canvas_background" height="402" width="582" y="-1" x="-1"/>
 </g>
 <g>
  <title>Layer 1</title>
  <path transform="rotate(45.27278137207031 399.99948120117205,399.9994812011718) " stroke="null" id="svg_1" fill="#ffffff" d="m399.996,34.504c-201.538,0 -365.492,163.959 -365.492,365.496s163.954,365.495 365.492,365.495c201.536,0 365.499,-163.958 365.499,-365.495s-163.963,-365.496 -365.499,-365.496zm183.454,336.579l148.735,0c0.83,9.536 1.338,19.166 1.338,28.917c0,9.745 -0.508,19.371 -1.338,28.907l-148.735,0c1.491,-9.447 2.48,-19.055 2.48,-28.907c0.001,-9.862 -0.998,-19.47 -2.48,-28.917zm144.399,-31.972l-149.868,0c-0.819,0 -1.613,0.125 -2.407,0.241c-18.689,-53.926 -61.438,-96.575 -115.443,-115.113c0.456,-1.472 0.768,-3.002 0.768,-4.621l0,-147.469c135.147,25.05 241.903,131.805 266.95,266.962zm-327.853,214.847c-84.891,0 -153.963,-69.064 -153.963,-153.958c0,-84.895 69.073,-153.959 153.963,-153.959c84.897,0 153.964,69.064 153.964,153.959c0,84.894 -69.066,153.958 -153.964,153.958zm28.929,-486.148l0,148.744c-9.454,-1.485 -19.064,-2.484 -28.929,-2.484c-9.849,0 -19.458,0.995 -28.895,2.479l0,-148.743c9.527,-0.821 19.153,-1.33 28.895,-1.33c9.749,0 19.385,0.508 28.929,1.334zm-89.796,4.331l0,147.478c0,1.614 0.312,3.145 0.758,4.612c-54.015,18.528 -96.772,61.192 -115.469,115.122c-0.785,-0.116 -1.579,-0.241 -2.409,-0.241l-149.868,0c25.049,-135.168 131.821,-241.926 266.988,-266.971zm-272.653,327.859c0,-9.751 0.509,-19.381 1.33,-28.917l148.735,0c-1.481,9.447 -2.479,19.054 -2.479,28.917c0,9.853 0.999,19.46 2.479,28.907l-148.735,0c-0.821,-9.536 -1.33,-19.162 -1.33,-28.907zm5.665,60.88l149.869,0c0.83,0 1.614,-0.125 2.409,-0.241c18.6,53.685 61.062,96.188 114.72,114.855c0,0.034 -0.009,0.06 -0.009,0.097l0,152.268c-135.176,-25.046 -241.94,-131.813 -266.989,-266.979zm298.96,271.315l0,-148.745c9.438,1.486 19.046,2.48 28.895,2.48c9.864,0 19.475,-0.999 28.929,-2.484l0,148.744c-9.544,0.825 -19.18,1.333 -28.929,1.333c-9.742,0 -19.368,-0.507 -28.895,-1.328zm89.797,-4.346l0,-152.258c0,-0.037 -0.019,-0.07 -0.019,-0.106c53.647,-18.672 96.102,-61.17 114.694,-114.846c0.794,0.116 1.588,0.241 2.407,0.241l149.867,0c-25.036,135.159 -131.791,241.922 -266.949,266.969z"/>
 </g>
</svg>